<svg width="230" height="230" viewBox="0 0 230 230" fill="none" xmlns="http://www.w3.org/2000/svg">
<circle cx="115" cy="115" r="100" fill="#D47F8A"/>
<path d="M115 15C128.132 15 141.136 17.5866 153.268 22.612C165.401 27.6375 176.425 35.0035 185.711 44.2893C194.997 53.5752 202.362 64.5991 207.388 76.7317C212.413 88.8642 215 101.868 215 115C215 128.132 212.413 141.136 207.388 153.268C202.362 165.401 194.997 176.425 185.711 185.711C176.425 194.997 165.401 202.362 153.268 207.388C141.136 212.413 128.132 215 115 215L115 115L115 15Z" fill="#ADC3D4"/>
<path d="M114.5 50C122.97 50 131.358 51.6683 139.183 54.9098C147.009 58.1512 154.119 62.9022 160.108 68.8916C166.098 74.881 170.849 81.9914 174.09 89.8169C177.332 97.6424 179 106.03 179 114.5C179 122.97 177.332 131.358 174.09 139.183C170.849 147.009 166.098 154.119 160.108 160.108C154.119 166.098 147.009 170.849 139.183 174.09C131.358 177.332 122.97 179 114.5 179L114.5 114.5L114.5 50Z" fill="#E8A98A"/>
<path d="M57 50H92V179H115V215L102 214L88.5 211.5L77 207.5L66.5 202L57 196.5V50Z" fill="#ADC3D4"/>
<path d="M75 89C82.1797 89 88 83.1797 88 76C88 68.8203 82.1797 63 75 63C67.8203 63 62 68.8203 62 76C62 83.1797 67.8203 89 75 89Z" fill="#F5EEEA"/>
</svg>
