<svg width="240" height="240" viewBox="0 0 240 240" fill="none" xmlns="http://www.w3.org/2000/svg">
<g clip-path="url(#clip0_161_9744)">
<path d="M120 240C186.274 240 240 186.274 240 120C240 53.7258 186.274 0 120 0C53.7258 0 0 53.7258 0 120C0 186.274 53.7258 240 120 240Z" fill="#C64E20"/>
<mask id="mask0_161_9744" style="mask-type:luminance" maskUnits="userSpaceOnUse" x="2" y="2" width="236" height="236">
<path d="M120 238C185.17 238 238 185.17 238 120C238 54.8304 185.17 2 120 2C54.8304 2 2 54.8304 2 120C2 185.17 54.8304 238 120 238Z" fill="white"/>
</mask>
<g mask="url(#mask0_161_9744)">
<path opacity="0.93" d="M115.151 118.262C148.302 96.9502 164.878 56.6953 148.302 18.8084C119.887 11.7046 98.5756 51.9594 115.151 118.262Z" fill="#FDF8F5"/>
<path opacity="0.88" d="M115.151 118.262C145.664 143.205 189.07 146.529 219.981 119.058C217.956 89.8379 173.086 82.009 115.151 118.262Z" fill="#E8869A"/>
<path opacity="0.84" d="M115.151 118.261C100.858 154.988 111.109 197.298 146.788 218.206C173.952 207.251 167.532 162.158 115.151 118.261Z" fill="#A8C9DE"/>
<path opacity="0.85" d="M115.151 118.261C75.8045 116.017 38.7334 138.841 29.8739 179.235C48.6867 201.684 89.5892 181.644 115.151 118.261Z" fill="#8FC4A0"/>
<path opacity="0.8" d="M115.151 118.261C105.127 80.1473 71.9643 51.9437 30.8096 56.0002C15.2727 80.8295 46.9718 113.537 115.151 118.261Z" fill="#F0B89A"/>
</g>
<path d="M120 140C131.046 140 140 131.046 140 120C140 108.954 131.046 100 120 100C108.954 100 100 108.954 100 120C100 131.046 108.954 140 120 140Z" fill="#C64E20"/>
<path d="M120 128C124.418 128 128 124.418 128 120C128 115.582 124.418 112 120 112C115.582 112 112 115.582 112 120C112 124.418 115.582 128 120 128Z" fill="#FDF8F5"/>
<path opacity="0.9" d="M116 119C117.657 119 119 117.657 119 116C119 114.343 117.657 113 116 113C114.343 113 113 114.343 113 116C113 117.657 114.343 119 116 119Z" fill="#D4847A"/>
</g>
<defs>
<clipPath id="clip0_161_9744">
<rect width="240" height="240" fill="white"/>
</clipPath>
</defs>
</svg>
